<?xml version="1.0" encoding="UTF-8" standalone="no"?>
<!-- Created with Inkscape (http://www.inkscape.org/) -->

<svg
   xmlns:dc="http://purl.org/dc/elements/1.1/"
   xmlns:cc="http://creativecommons.org/ns#"
   xmlns:rdf="http://www.w3.org/1999/02/22-rdf-syntax-ns#"
   xmlns:svg="http://www.w3.org/2000/svg"
   xmlns="http://www.w3.org/2000/svg"
   xmlns:sodipodi="http://sodipodi.sourceforge.net/DTD/sodipodi-0.dtd"
   xmlns:inkscape="http://www.inkscape.org/namespaces/inkscape"
   width="300px"
   height="100px"
   viewBox="0 0 300 100"
   version="1.1"
   id="svg8"
   inkscape:version="0.92.2 (5c3e80d, 2017-08-06)"
   sodipodi:docname="logo.svg">
  <defs
     id="defs2" />
  <sodipodi:namedview
     id="base"
     pagecolor="#ffffff"
     bordercolor="#666666"
     borderopacity="1.0"
     inkscape:pageopacity="0.0"
     inkscape:pageshadow="2"
     inkscape:zoom="0.35"
     inkscape:cx="400"
     inkscape:cy="560"
     inkscape:document-units="mm"
     inkscape:current-layer="layer1"
     showgrid="false"
     inkscape:window-width="1222"
     inkscape:window-height="713"
     inkscape:window-x="125"
     inkscape:window-y="43"
     inkscape:window-maximized="0" />
  <metadata
     id="metadata5">
    <rdf:RDF>
      <cc:Work
         rdf:about="">
        <dc:format>image/svg+xml</dc:format>
        <dc:type
           rdf:resource="http://purl.org/dc/dcmitype/StillImage" />
        <dc:title></dc:title>
      </cc:Work>
    </rdf:RDF>
  </metadata>
  <g
     inkscape:label="Layer 1"
     inkscape:groupmode="layer"
     id="layer1">
    <g
       id="g3710"
       transform="translate(1.5119023,3.5529804)">
      <path
         style="fill:#505050;stroke-width:0.41458946"
         d="M 5.8964214,52.449402 V 3.4258881 h 98.4250086 98.425 V 52.449402 101.47292 h -98.425 -98.4250086 z"
         id="path3714"
         inkscape:connector-curvature="0" />
      <path
         style="fill:#1c1c1c;stroke-width:0.41458946"
         d="M 73.775735,96.937415 C 38.892132,96.747799 9.890744,96.494813 9.3282072,96.37522 L 8.305413,96.157775 8.5616595,58.154439 C 8.702595,37.252603 8.7062138,19.743211 8.5697011,19.244679 8.364395,18.494919 8.1119265,18.378285 7.1089588,18.569851 l -1.2125374,0.231594 v -3.483281 c 0,-3.050312 0.0791,-3.420588 0.6363686,-2.97891 0.7152562,0.566896 0.8637521,0.992334 0.2121228,0.60773 -0.2682573,-0.158331 -0.4218571,0.838413 -0.4177493,2.710872 0.00357,1.628698 0.1521454,2.742453 0.3301609,2.475011 0.1780155,-0.267443 0.7000962,-0.638022 1.1601793,-0.82351 2.2410573,-0.903507 3.6977293,-2.221166 7.4123233,-6.704953 4.867591,-5.8755368 5.102697,-6.1138982 5.580419,-5.6576757 0.205875,0.1966098 0.860875,18.3913847 1.455555,40.4328347 0.794293,29.439933 1.214471,40.156275 1.583273,40.380247 0.27612,0.167685 16.443068,0.307759 35.926553,0.311271 19.483484,0.0036 58.486103,0.127652 86.672493,0.275857 48.68492,0.255992 51.24165,0.305299 51.12161,0.98585 -0.0695,0.394012 -1.9264,2.825132 -4.12644,5.402489 l -4.00008,4.686109 -26.12137,-0.06961 c -14.36675,-0.03829 -54.6625,-0.22475 -89.546105,-0.414361 z M 190.6461,92.278143 c 1.28847,-1.491778 2.34268,-2.829163 2.34268,-2.971964 0,-0.355051 -59.14129,-0.798005 -106.661846,-0.798872 C 64.840327,88.506918 41.385761,88.386251 34.205674,88.239164 21.416974,87.977184 21.147305,87.954496 20.971167,87.125707 20.872275,86.660392 20.374211,69.415184 19.864356,48.803025 19.354501,28.190866 18.799913,11.180454 18.631937,11.00211 18.463962,10.823765 16.8184,12.464635 14.975133,14.648487 l -3.351394,3.970639 -0.272139,5.469566 c -0.149677,3.008261 -0.29286,20.009494 -0.318185,37.780518 l -0.04604,32.310952 16.651644,0.05883 c 9.158404,0.03237 35.074514,0.178353 57.591355,0.324435 22.516846,0.146082 54.919716,0.301928 72.006386,0.34632 l 31.06666,0.08072 z M 97.783244,81.384409 c -3.397686,-0.724823 -7.4292,-2.387279 -10.192987,-4.203236 l -1.935642,-1.271824 4.24e-4,-12.844144 c 3.31e-4,-7.06428 0.127257,-19.843751 0.282056,-28.398825 l 0.281453,-15.554681 3.516814,-1.573867 c 4.908477,-2.196671 11.728998,-4.259561 15.946098,-4.822956 6.33778,-0.846709 10.06826,0.520462 12.08784,4.43003 1.4809,2.866763 1.82886,7.528964 0.78576,10.528121 -0.74464,2.141005 -3.89265,5.907867 -5.29165,6.331909 -0.42756,0.129597 -1.43976,1.187619 -2.24932,2.351159 -2.47426,3.556117 -6.73865,7.464467 -9.42686,8.63978 -2.354911,1.029599 -2.934405,1.063434 -5.63265,0.328891 l -0.942369,-0.256539 0.875257,2.475129 c 0.969291,2.741062 1.319846,2.903043 4.076675,1.883718 2.151997,-0.795688 7.875317,-2.101302 10.592607,-2.416401 3.02335,-0.350595 5.82248,0.384271 7.13416,1.872957 0.84136,0.954909 1.05469,1.644083 1.05469,3.407292 0,2.697351 0.69994,4.371289 3.37262,8.065795 3.73638,5.16489 3.7067,7.908842 -0.13493,12.475094 -1.53547,1.825093 -6.49994,5.499624 -9.12685,6.755384 -4.53537,2.168071 -10.18006,2.841095 -15.073374,1.797214 z m 8.707566,-2.194418 c 5.4715,-0.968895 13.43209,-6.400595 15.31996,-10.453171 1.0563,-2.267507 0.77717,-3.37319 -1.80526,-7.151056 -3.04154,-4.449487 -3.37365,-5.202837 -3.71066,-8.417195 -0.26923,-2.567836 -0.43614,-2.98738 -1.36728,-3.436674 -0.58334,-0.281476 -1.65999,-0.514459 -2.39255,-0.517745 -2.37472,-0.01066 -8.14615,1.213352 -12.3658,2.622531 -3.176146,1.060695 -4.232484,1.265398 -4.608794,0.893119 -0.689111,-0.681726 -3.45832,-7.942838 -3.794182,-9.948695 -0.289234,-1.727358 0.245752,-2.891446 1.328839,-2.891446 0.301758,0 1.26446,0.721402 2.13934,1.603115 1.964321,1.979657 3.423586,2.340708 5.555557,1.374552 1.91964,-0.869932 6.03726,-4.777146 8.02287,-7.612906 0.7894,-1.127382 2.42539,-2.779061 3.63553,-3.670398 1.21015,-0.891336 2.66077,-2.441047 3.22361,-3.4438 0.90432,-1.611125 1.00447,-2.22675 0.86108,-5.292741 -0.18765,-4.012245 -1.00722,-5.753936 -3.31749,-7.05009 -2.03284,-1.140497 -7.07091,-1.086177 -11.65175,0.125628 -4.552429,1.20429 -10.991804,3.587845 -12.184927,4.510291 l -0.966691,0.74738 -0.142809,26.590978 c -0.113507,21.134486 -0.03165,26.718876 0.398863,27.214277 0.882363,1.015334 5.351333,2.99385 8.599087,3.807016 3.461407,0.866659 5.963237,0.974353 9.223457,0.39703 z m -5.25895,-6.916464 c -4.841249,-1.115014 -7.703037,-4.809296 -6.641629,-8.573674 1.927611,-6.83643 13.744059,-7.782997 17.231159,-1.38032 1.31358,2.411868 0.59802,5.847464 -1.63206,7.835975 -2.04506,1.823525 -6.08674,2.779192 -8.95747,2.118019 z m 2.47446,-42.568238 c -0.92165,-0.203829 -2.01938,-0.66761 -2.43941,-1.030626 -0.97494,-0.842598 -0.98271,-2.650484 -0.015,-3.486841 1.14346,-0.988244 4.05973,-1.478773 6.13903,-1.03261 2.24503,0.481728 3.29415,1.363772 3.29415,2.769551 0,1.684416 -1.01434,2.343279 -4.6667,3.031254 -0.35,0.06593 -1.39044,-0.0469 -2.31209,-0.250728 z M 35.876452,67.980266 c -0.643734,-0.614763 -0.203287,-1.30281 0.994856,-1.554122 0.734157,-0.153991 1.741291,-0.84846 2.36749,-1.632504 0.599393,-0.750477 3.813049,-7.618059 7.141458,-15.261295 10.559899,-24.249355 9.997226,-23.071567 10.956089,-22.933432 0.701253,0.101023 2.208059,3.304293 8.348333,17.747429 4.120949,9.693286 7.939826,18.383769 8.486399,19.312181 0.903839,1.535279 2.289557,2.522544 4.425201,3.152783 0.652019,0.192412 0.697193,0.340228 0.258319,0.845243 -0.767914,0.883639 -15.472882,0.702373 -15.472882,-0.19073 0,-0.320087 0.616052,-0.734425 1.369007,-0.920755 2.695641,-0.667076 2.736534,-2.117269 0.229199,-8.128244 l -1.482327,-3.553674 -8.080697,0.109873 -8.080695,0.109878 -1.608253,3.646377 c -1.892221,4.290218 -2.091744,6.343201 -0.706525,7.269782 0.518589,0.346884 1.36642,0.630701 1.884068,0.630701 1.155818,0 1.735013,0.773385 0.939546,1.254553 -0.679133,0.410796 -11.547666,0.497937 -11.968586,0.09596 z M 61.896855,51.530564 c 0,-0.826152 -5.847977,-13.840131 -6.281187,-13.978036 -0.298605,-0.09506 -4.266677,8.130393 -6.74669,13.98528 -0.16616,0.392269 1.278142,0.506441 6.406679,0.506441 5.063928,0 6.621198,-0.120817 6.621198,-0.513685 z m 91.165125,13.094164 c -10.74434,-1.063782 -19.05594,-5.223346 -21.68306,-10.851351 -1.26169,-2.702869 -1.2253,-6.208739 0.0917,-8.838327 1.46655,-2.928129 5.55393,-6.591983 9.34533,-8.376988 7.57153,-3.564706 15.09649,-4.183544 27.86511,-2.291572 3.14615,0.466176 3.55679,0.449678 4.27586,-0.171789 1.26239,-1.091027 2.14552,-0.859589 2.40116,0.629257 0.30095,1.752674 1.0851,7.556405 1.0851,8.031088 0,1.050345 -1.68176,0.129263 -3.20629,-1.756057 -1.96462,-2.429546 -5.44086,-4.403357 -9.01166,-5.116818 -2.89531,-0.578496 -9.58796,-0.577217 -12.47348,0.0024 -7.29213,1.464731 -12.20401,6.45022 -12.2138,12.396832 -0.0114,6.91503 5.38064,12.305332 13.91285,13.908397 3.10168,0.582756 11.31763,0.30649 13.76503,-0.462859 l 1.59092,-0.500109 v -5.372649 c 0,-6.526735 -0.14975,-6.766861 -4.45458,-7.142621 -0.79678,-0.06955 -1.27273,-0.338359 -1.27273,-0.718826 0,-0.521789 1.31987,-0.60773 9.3334,-0.60773 8.01353,0 9.33341,0.08594 9.33341,0.60773 0,0.409269 -0.59156,0.683128 -1.81148,0.838614 -0.99631,0.126987 -2.04631,0.454464 -2.33335,0.727736 -0.34416,0.327659 -0.59411,2.523965 -0.734,6.449845 -0.24923,6.994542 0.23288,6.427591 -6.57581,7.732872 -4.93606,0.946288 -12.61525,1.339809 -17.22965,0.882942 z"
         id="path3712"
         inkscape:connector-curvature="0" />
    </g>
  </g>
</svg>
